<svg width="230" height="118" viewBox="0 0 230 118" fill="none" xmlns="http://www.w3.org/2000/svg">
<path d="M6.9674 73.0464C6.9674 73.0464 6.9786 73.0465 7.00142 73.0551C6.97888 73.0521 6.9674 73.0464 6.9674 73.0464Z" fill="#547980"/>
<path d="M7.3723 73.3005C7.35163 73.373 7.33076 73.4563 7.3105 73.5519C7.13217 74.3937 7.15964 75.6859 7.60883 77.1566C8.05801 78.6274 8.75718 79.7145 9.37536 80.3129C9.44559 80.3809 9.50947 80.4384 9.56708 80.4869C9.58775 80.4145 9.60862 80.3311 9.62888 80.2355C9.80721 79.3938 9.77974 78.1016 9.33055 76.6308C8.88137 75.16 8.18219 74.073 7.56402 73.4745C7.49378 73.4065 7.42991 73.3491 7.3723 73.3005Z" fill="#547980"/>
<path d="M9.37324 80.9239C9.37324 80.9239 9.37959 80.9127 9.39662 80.8977C9.38248 80.9175 9.37324 80.9239 9.37324 80.9239Z" fill="#547980"/>
<path d="M9.97198 80.741C9.97198 80.741 9.96078 80.7409 9.93796 80.7324C9.9605 80.7353 9.97198 80.741 9.97198 80.741Z" fill="#547980"/>
<path d="M7.54276 72.8897C7.5569 72.8699 7.56614 72.8636 7.56614 72.8636C7.56614 72.8636 7.55979 72.8747 7.54276 72.8897Z" fill="#547980"/>
<path fill-rule="evenodd" clip-rule="evenodd" d="M4.79787 49.7808C7.37686 48.9931 11.0835 49.9485 15.2529 53.9431C19.3153 57.8354 23.1212 64.0465 25.46 71.7047C27.7989 79.363 28.1127 86.6406 26.918 92.1384C25.6919 97.7809 23.1515 100.644 20.5725 101.432C19.1855 101.855 17.4723 101.775 15.5364 100.988C10.1762 94.8471 5.86109 87.2144 3.20054 78.503C0.539981 69.7915 -0.145557 61.0504 0.868755 52.9621C2.035 51.2283 3.41085 50.2044 4.79787 49.7808ZM12.1997 75.7545C11.0621 72.0297 8.46991 69.5201 6.40986 70.1492C4.34982 70.7784 3.60204 74.308 4.73965 78.0329C5.87726 81.7578 8.46947 84.2674 10.5295 83.6382C12.5896 83.0091 13.3373 79.4794 12.1997 75.7545Z" fill="#547980"/>
<path d="M2.05094 46.5899C2.55615 46.3347 3.08253 46.1223 3.62951 45.9552C12.7977 43.1552 24.2843 54.1605 29.2856 70.5364C34.2869 86.9122 30.909 102.457 21.7409 105.257C21.1939 105.424 20.6387 105.542 20.077 105.613C28.5719 113.286 38.9068 117.612 49.2419 117.349C53.957 113.828 57.7034 107.926 59.8152 99.9483C62.7376 88.9074 62.1562 75.155 58.0615 61.7479C53.9669 48.3408 46.7656 36.6103 38.1733 29.0861C31.9644 23.6492 25.5603 20.848 19.6824 20.562C10.9635 26.1177 4.80956 35.4804 2.05094 46.5899Z" fill="#547980"/>
<path d="M58.4231 115.86C58.1351 115.948 57.8465 116.032 57.5576 116.112C60.7083 112.093 63.1124 107.032 64.6487 101.228C67.8536 89.1196 67.1549 74.4042 62.8435 60.2875C58.5321 46.1708 50.8901 33.576 41.4672 25.3245C36.9502 21.369 32.1288 18.5147 27.27 16.9415C27.5543 16.8464 27.8406 16.7549 28.1286 16.6669C30.0221 16.0886 31.9346 15.6822 33.8542 15.4397C37.974 16.9322 42.2569 19.625 46.492 23.5708C55.3285 31.8035 62.8415 44.5098 67.2492 58.942C71.6569 73.3742 72.525 88.1099 69.7959 99.8748C68.488 105.513 66.4404 110.14 63.8574 113.679C62.1298 114.551 60.3166 115.282 58.4231 115.86Z" fill="#547980"/>
<path d="M72.8271 107.203C84.9148 95.282 89.6262 74.5706 83.3512 54.0243C77.0762 33.478 61.5972 18.9329 44.9115 15.7992C46.604 17.0201 48.271 18.3944 49.9004 19.9125C59.5096 28.8651 67.424 42.3962 72.0312 57.4815C76.6383 72.5668 77.6343 88.2108 74.6666 101.005C74.1634 103.174 73.5487 105.245 72.8271 107.203Z" fill="#547980"/>
<path d="M118.813 71.3993C123.269 70.0385 125.642 63.8462 125.504 55.7107C125.501 54.3997 125.429 53.0274 125.283 51.6084C124.958 48.427 124.277 45.1028 123.278 41.8314C122.279 38.56 120.986 35.423 119.479 32.6025C118.806 31.3445 118.1 30.1656 117.37 29.0767C112.939 22.2525 107.511 18.4427 103.055 19.8035C99.5142 20.885 97.2884 25.0176 96.5928 30.752L105.863 28.2226C106.662 28.0045 107.487 28.4756 107.705 29.2748C107.923 30.0741 107.452 30.8987 106.653 31.1168L96.3688 33.9227L96.3687 33.9278L80.7101 38.1982C83.3792 42.6899 85.5737 47.6104 87.1761 52.8573C88.7778 58.1015 89.7067 63.4059 90.0031 68.6198L115.682 59.9257C116.467 59.6601 117.318 60.0808 117.584 60.8655C117.849 61.6502 117.429 62.5016 116.644 62.7673L107.329 65.9211C111.112 70.294 115.27 72.4815 118.813 71.3993Z" fill="#547980"/>
<path d="M129.501 55.2497L226.736 22.3158C227.549 21.4777 228.248 20.4454 228.78 19.2408C229.393 17.8522 229.767 16.2722 229.846 14.5852C229.926 12.8982 229.708 11.1616 229.195 9.48338C228.683 7.80515 227.893 6.2433 226.885 4.88854C225.876 3.53379 224.684 2.43206 223.4 1.62298C222.285 0.921091 221.129 0.45556 219.986 0.214844L120.942 27.2261C121.663 28.3269 122.353 29.4942 123.007 30.7172C124.643 33.7802 126.034 37.1588 127.104 40.663C128.174 44.1673 128.909 47.7461 129.262 51.201C129.404 52.5804 129.484 53.9341 129.501 55.2497Z" fill="#547980"/>
</svg>
